<svg width="60" height="61" viewBox="0 0 60 61" fill="none" xmlns="http://www.w3.org/2000/svg">
<circle cx="30" cy="30.75" r="30" fill="url(#paint0_linear_494_2)"/>
<path d="M19.3223 35.0399L16.4665 47.4064C16.378 47.7808 16.4046 48.1733 16.5426 48.5324C16.6807 48.8916 16.9239 49.2007 17.2404 49.4195C17.5569 49.6383 17.932 49.7566 18.3167 49.7589C18.7015 49.7611 19.078 49.6473 19.3971 49.4323L29.8335 42.4747L40.2699 49.4323C40.5963 49.6491 40.9814 49.7607 41.3732 49.7521C41.765 49.7435 42.1447 49.6151 42.4614 49.3843C42.7781 49.1534 43.0164 48.8311 43.1445 48.4607C43.2725 48.0903 43.284 47.6896 43.1775 47.3125L39.6719 35.0456L48.366 27.2217C48.6444 26.971 48.8433 26.6441 48.938 26.2816C49.0326 25.919 49.0189 25.5367 48.8986 25.1818C48.7783 24.827 48.5566 24.5152 48.2609 24.285C47.9653 24.0548 47.6087 23.9163 47.2351 23.8866L36.3081 23.0165L31.5796 12.5494C31.4288 12.2124 31.1837 11.9262 30.8739 11.7253C30.564 11.5245 30.2027 11.4177 29.8335 11.4177C29.4643 11.4177 29.1029 11.5245 28.7931 11.7253C28.4832 11.9262 28.2381 12.2124 28.0874 12.5494L23.3589 23.0165L12.4318 23.8847C12.0647 23.9138 11.7137 24.048 11.4209 24.2714C11.128 24.4947 10.9057 24.7977 10.7806 25.1441C10.6554 25.4904 10.6327 25.8655 10.7151 26.2244C10.7976 26.5834 10.9817 26.911 11.2454 27.168L19.3223 35.0399ZM24.7907 26.7483C25.1328 26.7213 25.4613 26.6028 25.7419 26.4052C26.0225 26.2076 26.2447 25.9381 26.3853 25.6251L29.8335 17.9947L33.2816 25.6251C33.4222 25.9381 33.6445 26.2076 33.925 26.4052C34.2056 26.6028 34.5342 26.7213 34.8763 26.7483L42.4894 27.352L36.2199 32.9948C35.6756 33.4854 35.459 34.2406 35.6583 34.946L38.0599 43.3507L30.8992 38.5762C30.5849 38.3652 30.2149 38.2526 29.8364 38.2526C29.4578 38.2526 29.0878 38.3652 28.7735 38.5762L21.2908 43.5653L23.3033 34.852C23.3771 34.5316 23.3672 34.1975 23.2745 33.882C23.1819 33.5664 23.0096 33.2801 22.7743 33.0504L16.9514 27.3731L24.7907 26.7483Z" fill="#93A603"/>
<defs>
<linearGradient id="paint0_linear_494_2" x1="-6.17747" y1="-12.0959" x2="57.5506" y2="-9.55046" gradientUnits="userSpaceOnUse">
<stop stop-color="#93A603" stop-opacity="0.3"/>
<stop offset="0.33" stop-color="#93A603" stop-opacity="0.24"/>
<stop offset="0.68" stop-color="#93A603" stop-opacity="0.15"/>
<stop offset="1" stop-color="#93A603" stop-opacity="0.06"/>
</linearGradient>
</defs>
</svg>
