<svg width="60" height="60" viewBox="0 0 60 60" fill="none" xmlns="http://www.w3.org/2000/svg">
<path d="M46.5386 52.7344H13.2573C11.4243 52.7322 9.66691 52.0031 8.37074 50.7069C7.07457 49.4107 6.34543 47.6534 6.34326 45.8203V22.8516C6.34543 21.0185 7.07457 19.2611 8.37074 17.965C9.66691 16.6688 11.4243 15.9397 13.2573 15.9375H24.9608C25.8622 15.9375 26.7266 15.5795 27.3639 14.9421C28.0012 14.3048 28.3593 13.4404 28.3593 12.5391C28.3611 10.7059 29.0902 8.94837 30.3864 7.65214C31.6826 6.3559 33.4402 5.62686 35.2733 5.625H46.5386C48.3717 5.62686 50.1293 6.3559 51.4255 7.65214C52.7217 8.94837 53.4508 10.7059 53.4526 12.5391V45.8203C53.4508 47.6535 52.7217 49.411 51.4255 50.7072C50.1293 52.0035 48.3717 52.7325 46.5386 52.7344ZM13.2573 19.4531C12.356 19.4531 11.4916 19.8112 10.8543 20.4485C10.2169 21.0858 9.85889 21.9502 9.85889 22.8516V45.8203C9.85889 46.7216 10.2169 47.586 10.8543 48.2234C11.4916 48.8607 12.356 49.2188 13.2573 49.2188H46.5386C47.4399 49.2188 48.3043 48.8607 48.9416 48.2234C49.579 47.586 49.937 46.7216 49.937 45.8203V12.5391C49.937 11.6377 49.579 10.7733 48.9416 10.136C48.3043 9.49867 47.4399 9.14062 46.5386 9.14062H35.2733C34.372 9.14062 33.5076 9.49867 32.8703 10.136C32.233 10.7733 31.8749 11.6377 31.8749 12.5391C31.8727 14.3721 31.1436 16.1295 29.8474 17.4256C28.5513 18.7218 26.7939 19.451 24.9608 19.4531H13.2573Z" fill="#93A603"/>
</svg>
