<svg width="22" height="12" viewBox="0 0 22 12" fill="none" xmlns="http://www.w3.org/2000/svg">
<path d="M2 11.5C1.578 11.5 1.22267 11.3553 0.934 11.066C0.644667 10.7773 0.5 10.422 0.5 10C0.5 9.578 0.644667 9.22267 0.934 8.934C1.22333 8.64533 1.57867 8.50067 2 8.5C2.126 8.5 2.24233 8.50967 2.349 8.529C2.45567 8.54833 2.55733 8.594 2.654 8.666L7.666 3.654C7.594 3.55733 7.54833 3.45567 7.529 3.349C7.50967 3.24233 7.5 3.126 7.5 3C7.5 2.578 7.64467 2.22267 7.934 1.934C8.22267 1.64467 8.578 1.5 9 1.5C9.422 1.5 9.77733 1.64467 10.066 1.934C10.3547 2.22333 10.4993 2.57867 10.5 3C10.5 3.08467 10.4577 3.29 10.373 3.616L13.385 6.627C13.481 6.58033 13.576 6.54767 13.67 6.529C13.7647 6.50967 13.8747 6.5 14 6.5C14.1253 6.5 14.2387 6.50967 14.34 6.529C14.44 6.54833 14.5317 6.594 14.615 6.666L18.665 2.616C18.5937 2.53267 18.5483 2.44067 18.529 2.34C18.5097 2.23933 18.5 2.126 18.5 2C18.5 1.578 18.6447 1.22267 18.934 0.934C19.2227 0.644667 19.578 0.5 20 0.5C20.422 0.5 20.7773 0.644667 21.066 0.934C21.3553 1.22267 21.5 1.578 21.5 2C21.5 2.422 21.3553 2.77733 21.066 3.066C20.7767 3.35467 20.4213 3.49933 20 3.5C19.8747 3.5 19.7613 3.49033 19.66 3.471C19.56 3.45167 19.468 3.406 19.384 3.334L15.334 7.384C15.406 7.46733 15.4517 7.55933 15.471 7.66C15.4903 7.76067 15.5 7.874 15.5 8C15.5 8.422 15.3553 8.77733 15.066 9.066C14.7773 9.35533 14.422 9.5 14 9.5C13.578 9.5 13.2227 9.35533 12.934 9.066C12.6453 8.77667 12.5007 8.42133 12.5 8C12.5 7.87467 12.5097 7.75833 12.529 7.651C12.5483 7.54367 12.594 7.442 12.666 7.346L9.654 4.335C9.558 4.40633 9.45633 4.45167 9.349 4.471C9.24233 4.49033 9.126 4.5 9 4.5C8.91533 4.5 8.71033 4.45767 8.385 4.373L3.373 9.385C3.41967 9.481 3.45233 9.576 3.471 9.67C3.49033 9.76467 3.5 9.87467 3.5 10C3.5 10.422 3.35533 10.7773 3.066 11.066C2.77733 11.3553 2.422 11.5 2 11.5Z" fill="#93A603"/>
</svg>
