<svg width="70" height="40" viewBox="0 0 70 40" fill="none" xmlns="http://www.w3.org/2000/svg">
<path d="M10.4409 26.75C10.2618 26.75 10.0852 26.7076 9.92568 26.6262L1.35093 22.2095C1.08656 22.0734 0.886797 21.8382 0.795308 21.5553C0.703818 21.2724 0.728041 20.9648 0.862682 20.6997L10.9359 0.802981C11.0028 0.670866 11.0951 0.553253 11.2075 0.456885C11.3199 0.360517 11.4503 0.287292 11.5911 0.241408C11.7319 0.195524 11.8803 0.177886 12.0279 0.189503C12.1756 0.20112 12.3194 0.241764 12.4513 0.309106L20.6087 4.47161C20.8706 4.60487 21.0699 4.83533 21.1641 5.11368C21.2583 5.39203 21.2398 5.69619 21.1127 5.96111L11.4557 26.1076C11.3904 26.2431 11.2988 26.3642 11.1862 26.4639C11.0736 26.5635 10.9422 26.6398 10.7998 26.6881C10.6842 26.7276 10.5631 26.7484 10.4409 26.75ZM3.37481 20.72L9.92681 24.095L18.6096 5.98248L12.4333 2.83248L3.37481 20.72Z" fill="#93A603"/>
<path d="M22.096 11.0945C21.9025 11.0944 21.7122 11.0444 21.5437 10.9493L18.2744 9.10772C18.1457 9.03525 18.0324 8.93814 17.9412 8.82192C17.85 8.7057 17.7826 8.57265 17.7428 8.43037C17.703 8.28808 17.6916 8.13935 17.7093 7.99267C17.7269 7.84599 17.7733 7.70422 17.8458 7.57547C17.9183 7.44672 18.0154 7.3335 18.1316 7.24228C18.2478 7.15105 18.3809 7.08362 18.5231 7.04382C18.6654 7.00402 18.8142 6.99263 18.9608 7.0103C19.1075 7.02798 19.2493 7.07438 19.378 7.14684L22.078 8.66672C23.1322 8.02772 25.4137 6.65184 26.8739 5.82722C29.2578 4.47722 30.9363 4.66284 32.8634 6.48872C33.0744 6.69516 33.1958 6.97626 33.2014 7.27138C33.207 7.56651 33.0964 7.85202 32.8935 8.06635C32.6905 8.28068 32.4114 8.40666 32.1164 8.41711C31.8214 8.42756 31.5342 8.32165 31.3165 8.12222C30.1195 6.98822 29.4963 6.92972 27.9809 7.78472C26.1044 8.84559 22.7193 10.9088 22.6844 10.9347C22.5067 11.0411 22.3031 11.0964 22.096 11.0945Z" fill="#93A603"/>
<path d="M51.6913 30.6684C50.8716 30.6894 50.0629 30.4759 49.3603 30.053C48.3253 29.3622 43.7713 24.896 42.8691 24.0084C42.6702 23.7966 42.5609 23.5162 42.5641 23.2257C42.5673 22.9352 42.6827 22.6572 42.8862 22.4499C43.0897 22.2426 43.3656 22.1221 43.6559 22.1136C43.9463 22.105 44.2287 22.2091 44.4441 22.4041C46.4691 24.4032 49.9431 27.7389 50.6057 28.181C51.0328 28.3783 51.5051 28.457 51.9731 28.4087C52.4411 28.3604 52.8874 28.1869 53.2652 27.9065C53.4421 27.7531 53.5832 27.5627 53.6784 27.3488C53.7737 27.1349 53.8209 26.9027 53.8166 26.6686C53.8123 26.4345 53.7566 26.2042 53.6536 25.9939C53.5505 25.7836 53.4026 25.5986 53.2202 25.4517C52.0704 24.158 47.2937 19.5624 46.2452 18.5544C42.5866 17.2133 39.0387 15.5876 35.6342 13.6921L34.4507 14.4661C34.185 15.6996 33.4761 16.7927 32.4583 17.5385C32.1011 17.8199 31.6864 18.0194 31.2435 18.1228C30.8007 18.2262 30.3405 18.2311 29.8956 18.137C29.3557 18.0697 28.8357 17.8905 28.3691 17.6107C27.9024 17.331 27.4993 16.9569 27.1855 16.5125C26.5872 15.2343 26.52 13.771 26.9987 12.4434C27.9583 8.60261 29.5153 7.61374 31.6697 6.24574L32.1433 5.94311C34.5171 4.41874 36.5545 3.60649 38.7909 4.61336C40.1814 5.23999 45.1168 7.15136 46.5186 7.69361L51.2166 6.15349C51.498 6.0679 51.8018 6.09595 52.0628 6.23162C52.3238 6.36729 52.5212 6.59979 52.6129 6.8793C52.7045 7.15881 52.6831 7.4631 52.5531 7.72698C52.4231 7.99085 52.1949 8.19331 51.9174 8.29099L46.8381 9.95599C46.5921 10.0362 46.3262 10.0299 46.0843 9.93799C45.8177 9.83449 39.5425 7.42024 37.8718 6.66649C36.8695 6.21649 35.8108 6.26261 33.3628 7.83536L32.8791 8.14474C30.9137 9.39236 29.9271 10.0201 29.1846 12.989C28.8043 14.51 28.9798 15.1265 29.1182 15.3515C29.296 15.6485 29.7077 15.7689 30.3636 15.9331C30.5044 15.9568 30.6487 15.9489 30.786 15.91C30.9234 15.8711 31.0504 15.8021 31.1578 15.7081C31.4751 15.4691 31.7402 15.1676 31.9365 14.8222C32.1329 14.4768 32.2565 14.0949 32.2997 13.7C32.3144 13.5304 32.3674 13.3663 32.4547 13.2202C32.542 13.074 32.6613 12.9496 32.8037 12.8562L34.9693 11.4399C35.14 11.3288 35.3376 11.2662 35.5411 11.2587C35.7446 11.2512 35.9463 11.299 36.1247 11.3971C36.2012 11.4387 43.786 15.5866 47.1081 16.4596C47.2928 16.5089 47.4622 16.6037 47.6008 16.7352C47.8438 16.9681 53.5633 22.4446 54.9066 23.96C55.2788 24.3203 55.5739 24.7524 55.7741 25.2302C55.9743 25.7079 56.0753 26.2214 56.0711 26.7394C56.0669 27.2574 55.9575 27.7691 55.7496 28.2436C55.5417 28.718 55.2396 29.1453 54.8616 29.4995C53.996 30.2848 52.8595 30.7038 51.6913 30.6684Z" fill="#93A603"/>
<path d="M54.0646 25.8298C53.8068 25.8296 53.5569 25.7409 53.3567 25.5785C53.1565 25.4161 53.0182 25.1899 52.9648 24.9377C52.9114 24.6855 52.9463 24.4226 53.0636 24.193C53.1808 23.9634 53.3734 23.7811 53.609 23.6765L57.5555 21.9283C57.6912 21.8642 57.8382 21.8279 57.9881 21.8216C58.138 21.8152 58.2877 21.8389 58.4282 21.8912C58.5688 21.9435 58.6976 22.0234 58.8068 22.1262C58.9161 22.229 59.0037 22.3526 59.0644 22.4898C59.1252 22.627 59.1579 22.7749 59.1607 22.9249C59.1634 23.0749 59.1362 23.2239 59.0805 23.3632C59.0248 23.5025 58.9418 23.6292 58.8364 23.736C58.731 23.8427 58.6053 23.9273 58.4668 23.9848L54.5191 25.7375C54.3757 25.7995 54.2209 25.8309 54.0646 25.8298Z" fill="#93A603"/>
<path d="M59.2252 26.75C59.001 26.7499 58.7819 26.6828 58.5961 26.5573C58.4103 26.4319 58.2662 26.2537 58.1823 26.0458L49.6908 4.97901C49.6341 4.83852 49.6063 4.68801 49.6091 4.53651C49.612 4.38502 49.6454 4.23566 49.7074 4.09739C49.7694 3.95913 49.8587 3.83481 49.9699 3.7319C50.0811 3.62899 50.2119 3.54961 50.3546 3.49851L59.4288 0.251762C59.7034 0.15357 60.0053 0.165781 60.2709 0.285822C60.5366 0.405863 60.7453 0.624358 60.8531 0.895262L69.1781 21.791C69.2326 21.9292 69.2591 22.0767 69.2563 22.2252C69.2534 22.3737 69.2212 22.5201 69.1615 22.6561C69.1018 22.792 69.0158 22.9148 68.9083 23.0173C68.8009 23.1199 68.6743 23.2002 68.5357 23.2535L59.628 26.6713C59.4997 26.722 59.3632 26.7487 59.2252 26.75ZM52.212 5.22201L59.8518 24.1749L66.6626 21.5649L59.1645 2.73576L52.212 5.22201ZM46.623 34.0805C45.6956 34.1083 44.7899 33.7967 44.076 33.2041C42.5696 31.8654 38.6973 27.9954 38.5331 27.8311C38.3282 27.619 38.2148 27.3348 38.2173 27.0398C38.2199 26.7448 38.3382 26.4627 38.5468 26.2541C38.7554 26.0455 39.0375 25.9272 39.3325 25.9246C39.6275 25.9221 39.9117 26.0355 40.1238 26.2404C40.1632 26.2798 44.1142 30.2285 45.57 31.5279C45.8717 31.7117 46.2134 31.82 46.5659 31.8435C46.9185 31.867 47.2715 31.805 47.595 31.6629C48.1232 31.4827 48.5919 31.1609 48.9498 30.7326C49.3076 30.3043 49.541 29.7859 49.6245 29.234C49.6496 29.0884 49.7031 28.9492 49.782 28.8243C49.861 28.6994 49.9637 28.5913 50.0844 28.5061C50.2051 28.4209 50.3414 28.3603 50.4856 28.3278C50.6297 28.2953 50.7788 28.2915 50.9244 28.3166C51.07 28.3417 51.2092 28.3952 51.3341 28.4742C51.459 28.5531 51.5672 28.6558 51.6523 28.7765C51.7375 28.8972 51.7981 29.0336 51.8306 29.1777C51.8631 29.3218 51.867 29.4709 51.8418 29.6165C51.6889 30.5616 51.2829 31.4477 50.6668 32.1805C50.0508 32.9134 49.2478 33.4658 48.3431 33.779C47.7906 33.9751 47.2092 34.077 46.623 34.0805Z" fill="#93A603"/>
<path d="M41.3872 36.8075C40.4618 36.8469 39.5574 36.5241 38.8661 35.9075L34.8701 31.9115L36.462 30.3196L40.458 34.3156C40.7053 34.4544 40.9789 34.5398 41.2613 34.5662C41.5437 34.5925 41.8284 34.5593 42.0971 34.4686C42.6132 34.3419 43.0857 34.0788 43.4653 33.707C43.8449 33.3351 44.1176 32.8681 44.2549 32.3547C44.2965 32.2115 44.3661 32.078 44.4598 31.962C44.5535 31.8459 44.6693 31.7497 44.8005 31.6788C44.9317 31.6079 45.0756 31.5638 45.224 31.5491C45.3724 31.5343 45.5223 31.5492 45.6649 31.5929C45.8074 31.6366 45.9399 31.7082 46.0546 31.8036C46.1692 31.899 46.2638 32.0162 46.3327 32.1484C46.4017 32.2806 46.4436 32.4252 46.4562 32.5738C46.4688 32.7224 46.4517 32.872 46.4059 33.014C46.0929 34.1042 45.4346 35.0634 44.5298 35.7475C43.625 36.4316 42.5215 36.8035 41.3872 36.8075Z" fill="#93A603"/>
<path d="M37.099 39.8124C36.1793 39.832 35.2799 39.5406 34.5463 38.9855C33.5329 38.1741 32.5148 37.3686 31.492 36.569C31.3731 36.479 31.2733 36.3662 31.1985 36.2372C31.1236 36.1082 31.0751 35.9657 31.0558 35.8178C31.0365 35.6699 31.0469 35.5197 31.0862 35.3758C31.1255 35.232 31.193 35.0974 31.2848 34.9798C31.3766 34.8623 31.4908 34.7642 31.6209 34.6912C31.7509 34.6183 31.8942 34.5719 32.0424 34.5548C32.1905 34.5377 32.3406 34.5502 32.4838 34.5916C32.6271 34.633 32.7607 34.7025 32.8768 34.796C32.8768 34.796 34.282 35.8929 35.9526 37.2294C36.3085 37.4412 36.7133 37.5571 37.1275 37.5655C37.5416 37.574 37.9508 37.4749 38.3151 37.2778C38.6408 37.1377 38.9164 36.9022 39.1056 36.6024C39.2948 36.3026 39.3887 35.9524 39.3748 35.5981C39.3658 35.2999 39.4755 35.0103 39.6799 34.793C39.8844 34.5757 40.1668 34.4485 40.465 34.4394C40.7623 34.4341 41.0499 34.5453 41.2664 34.7492C41.4829 34.9531 41.6111 35.2335 41.6237 35.5306C41.6502 36.3143 41.446 37.0884 41.0364 37.757C40.6268 38.4256 40.0299 38.9592 39.3197 39.2915C38.6293 39.6333 37.8694 39.8115 37.099 39.8124Z" fill="#93A603"/>
<path d="M28.668 39.2915C28.3023 39.2902 27.9405 39.2176 27.6026 39.0777C26.6853 38.6276 25.929 37.9056 25.437 37.01C24.6386 37.1649 23.8112 37.0406 23.0936 36.6579C22.4917 36.2633 21.9742 35.753 21.5713 35.1566C21.1684 34.5602 20.8882 33.8896 20.7468 33.1839C20.6876 32.8965 20.7429 32.5974 20.901 32.3502C21.8156 30.9237 23.1949 28.7064 23.4007 28.244C23.586 27.8751 23.8488 27.5506 24.1711 27.2928C24.4934 27.0349 24.8677 26.8497 25.2682 26.75C25.8131 26.6072 26.383 26.5881 26.9362 26.6939C27.4894 26.7998 28.0119 27.0281 28.4655 27.362C28.9682 27.6948 29.3718 28.1569 29.634 28.6998C29.8961 29.2426 30.007 29.8461 29.955 30.4467C30.4901 30.4698 31.014 30.6074 31.4914 30.8501C31.9689 31.0929 32.3886 31.4353 32.7225 31.8541C33.0467 32.3608 33.2537 32.9336 33.3282 33.5306C33.4028 34.1275 33.343 34.7336 33.1533 35.3045C32.5633 36.9514 31.3518 38.3018 29.7783 39.0665C29.427 39.215 29.0494 39.2915 28.668 39.2915ZM27.3315 35.7804C27.6847 36.3777 28.3158 37.235 28.9065 36.9886C29.8871 36.4779 30.642 35.6199 31.0237 34.5822C31.0988 34.3526 31.1276 34.1103 31.1083 33.8695C31.0889 33.6287 31.022 33.3941 30.9112 33.1794C30.7401 33.0118 30.5369 32.8803 30.3139 32.793C30.0908 32.7056 29.8524 32.6641 29.613 32.6709L27.3315 35.7804ZM23.0666 33.1366C23.2456 33.7617 23.6336 34.3065 24.1657 34.6801C24.3319 34.7654 24.5137 34.8156 24.7001 34.8278C24.8864 34.84 25.0733 34.8139 25.2491 34.751L27.651 30.6335C27.7465 30.379 27.7526 30.0997 27.6684 29.8413C27.5841 29.5829 27.4146 29.3608 27.1875 29.2115C27.0147 29.0753 26.8153 28.9768 26.6022 28.9224C26.3891 28.8679 26.1669 28.8587 25.95 28.8954C25.7585 28.9269 25.5837 29.0235 25.455 29.1687C25.158 29.8269 23.7292 32.0949 23.0666 33.1366Z" fill="#93A603"/>
<path d="M20.0695 34.8939C19.803 34.8947 19.5377 34.8568 19.282 34.7814C17.3549 34.2021 16.6 31.7068 16.5202 31.4244C16.4798 31.2812 16.4683 31.1314 16.4862 30.9836C16.5042 30.8359 16.5513 30.6932 16.6248 30.5638C17.581 28.9028 18.6386 27.3023 19.7917 25.7713C20.3705 25.0183 21.2092 24.508 22.1441 24.3402C23.0789 24.1723 24.0427 24.3589 24.8474 24.8634C25.9094 25.6003 26.6879 27.2034 25.3852 29.2982C25.3072 29.4238 25.2053 29.5328 25.0853 29.619C24.9652 29.7052 24.8294 29.7669 24.6855 29.8006C24.5416 29.8342 24.3924 29.8393 24.2466 29.8153C24.1008 29.7914 23.9611 29.7389 23.8355 29.661C23.7099 29.5831 23.6009 29.4812 23.5147 29.3611C23.4285 29.2411 23.3668 29.1052 23.3331 28.9613C23.2994 28.8174 23.2944 28.6683 23.3184 28.5224C23.3423 28.3766 23.3947 28.2369 23.4727 28.1113C23.7618 27.6444 24.0127 27.0246 23.5638 26.7129C23.2357 26.5337 22.8541 26.4786 22.4888 26.5575C22.1234 26.6364 21.7986 26.8441 21.5737 27.1427C20.5854 28.4559 19.6709 29.823 18.8343 31.2377C19.0807 31.8261 19.5003 32.4999 19.9289 32.6271C20.308 32.7396 20.8289 32.3503 21.1113 32.1096C21.3372 31.9144 21.6313 31.817 21.929 31.8388C22.2267 31.8605 22.5035 31.9996 22.6987 32.2254C22.8938 32.4513 22.9912 32.7454 22.9695 33.0431C22.9478 33.3408 22.8087 33.6177 22.5828 33.8128C21.9064 34.4698 21.0117 34.8547 20.0695 34.8939Z" fill="#93A603"/>
<path d="M17.6003 32.2401C17.4766 32.2399 17.3538 32.2194 17.2369 32.1793C17.0468 32.1152 12.5625 30.5481 12.5625 27.0358C12.5624 26.9179 12.5806 26.8006 12.6165 26.6882C13.0236 25.5679 13.581 24.5082 14.2736 23.5382C14.789 22.9223 15.5009 22.5028 16.2894 22.3504C17.0779 22.1979 17.8948 22.3218 18.6026 22.7012C19.2689 22.9965 19.8003 23.5308 20.0919 24.1988C20.3835 24.8667 20.4141 25.6197 20.1776 26.3091C19.4419 28.6783 18.687 31.3862 18.6791 31.4143C18.6131 31.6509 18.4714 31.8593 18.2758 32.0078C18.0802 32.1563 17.8413 32.2367 17.5958 32.2367L17.6003 32.2401ZM14.8215 27.2102C14.934 28.2632 16.0118 29.0642 16.8758 29.5446C17.1694 28.5186 17.6048 27.0257 18.0322 25.6453C18.0715 25.5576 18.0916 25.4626 18.0911 25.3665C18.0907 25.2705 18.0697 25.1756 18.0297 25.0883C17.9897 25.0009 17.9314 24.9232 17.8589 24.8601C17.7864 24.7971 17.7013 24.7503 17.6093 24.7228C17.3768 24.5917 17.1107 24.5324 16.8446 24.5524C16.5785 24.5725 16.3243 24.6709 16.1141 24.8353C15.5925 25.5741 15.1587 26.3711 14.8215 27.2102Z" fill="#93A603"/>
<path d="M14.6113 26.2202C14.3848 26.2199 14.1636 26.1513 13.9768 26.0233L11.0259 23.9983C10.7796 23.8297 10.6103 23.5702 10.5554 23.2768C10.5004 22.9835 10.5643 22.6803 10.7328 22.434C10.9014 22.1877 11.1609 22.0184 11.4543 21.9635C11.7477 21.9085 12.0508 21.9723 12.2971 22.1409L15.248 24.1659C15.4468 24.3015 15.5968 24.4973 15.6761 24.7246C15.7554 24.9518 15.7597 25.1984 15.6885 25.4282C15.6172 25.6581 15.4741 25.859 15.2803 26.0016C15.0864 26.1441 14.8519 26.2207 14.6113 26.2202Z" fill="#93A603"/>
</svg>
