<svg width="14" height="16" viewBox="0 0 14 16" fill="none" xmlns="http://www.w3.org/2000/svg">
<g clip-path="url(#clip0_183_3018)">
<g clip-path="url(#clip1_183_3018)">
<mask id="mask0_183_3018" style="mask-type:luminance" maskUnits="userSpaceOnUse" x="1" y="1" width="13" height="14">
<path d="M13.7059 1.18689H1V14.6869H13.7059V1.18689Z" fill="white"/>
</mask>
<g mask="url(#mask0_183_3018)">
<path d="M13.6676 5.54526C13.6605 5.01076 13.5604 4.48159 13.3719 3.98138C13.2084 3.55948 12.9588 3.1763 12.6388 2.85636C12.3189 2.53641 11.9356 2.28671 11.5137 2.12324C11.02 1.93789 10.4984 1.83767 9.97107 1.82684C9.29217 1.79649 9.07692 1.78802 7.35356 1.78802C5.63021 1.78802 5.40931 1.78802 4.73535 1.82684C4.2083 1.83774 3.68691 1.93796 3.19337 2.12324C2.77139 2.2866 2.38815 2.53625 2.06819 2.85622C1.74823 3.17618 1.49858 3.55941 1.33521 3.98138C1.14949 4.47478 1.04949 4.99628 1.03952 5.52339C1.00917 6.20299 1 6.41823 1 8.14159C1 9.86494 1 10.0851 1.03952 10.7598C1.05011 11.2877 1.14961 11.8085 1.33521 12.3032C1.49886 12.7251 1.74869 13.1082 2.06877 13.428C2.38883 13.7478 2.77209 13.9973 3.19407 14.1606C3.68626 14.3535 4.20775 14.4609 4.73606 14.4783C5.41567 14.5086 5.63091 14.5177 7.35426 14.5177C9.07759 14.5177 9.29854 14.5177 9.97249 14.4783C10.4998 14.4678 11.0214 14.3679 11.5152 14.1825C11.937 14.0188 12.3201 13.7691 12.6399 13.4491C12.9599 13.1292 13.2096 12.7462 13.3733 12.3243C13.5589 11.8303 13.6584 11.3095 13.669 10.781C13.6994 10.1021 13.7085 9.88684 13.7085 8.16276C13.7071 6.4394 13.7071 6.22062 13.6676 5.54526ZM7.34933 11.4006C5.54693 11.4006 4.0868 9.94046 4.0868 8.13806C4.0868 6.33566 5.54693 4.87554 7.34933 4.87554C8.21464 4.87554 9.04444 5.21926 9.65629 5.8311C10.2681 6.44295 10.6119 7.27278 10.6119 8.13806C10.6119 9.00334 10.2681 9.83321 9.65629 10.445C9.04444 11.0568 8.21464 11.4006 7.34933 11.4006ZM10.7417 5.51561C10.6418 5.51571 10.5429 5.49609 10.4505 5.4579C10.3581 5.4197 10.2742 5.36366 10.2036 5.293C10.1329 5.22234 10.0768 5.13843 10.0386 5.04609C10.0005 4.95375 9.98082 4.85478 9.98089 4.75485C9.98089 4.655 10.0006 4.55612 10.0388 4.46386C10.077 4.3716 10.1331 4.28778 10.2036 4.21716C10.2743 4.14656 10.3581 4.09054 10.4504 4.05233C10.5426 4.01412 10.6415 3.99444 10.7414 3.99444C10.8412 3.99444 10.9401 4.01412 11.0323 4.05233C11.1246 4.09054 11.2085 4.14656 11.2791 4.21716C11.3496 4.28778 11.4057 4.3716 11.4439 4.46386C11.4821 4.55612 11.5017 4.655 11.5017 4.75485C11.5017 5.17546 11.1616 5.51561 10.7417 5.51561Z" fill="white"/>
<path d="M7.35022 10.2575C8.5207 10.2575 9.46952 9.30871 9.46952 8.13825C9.46952 6.96781 8.5207 6.01898 7.35022 6.01898C6.17978 6.01898 5.23096 6.96781 5.23096 8.13825C5.23096 9.30871 6.17978 10.2575 7.35022 10.2575Z" fill="white"/>
</g>
</g>
</g>
<defs>
<clipPath id="clip0_183_3018">
<rect width="13.5" height="14.25" fill="white" transform="translate(0.477539 0.790344)"/>
</clipPath>
<clipPath id="clip1_183_3018">
<rect width="13.5" height="14.25" fill="white" transform="translate(0.477539 0.790344)"/>
</clipPath>
</defs>
</svg>
