<svg width="46" height="46" viewBox="0 0 46 46" fill="none" xmlns="http://www.w3.org/2000/svg">
<path fill-rule="evenodd" clip-rule="evenodd" d="M23.0082 0.0792236C10.3751 0.0792236 0.0751953 10.3645 0.0751953 22.9956C0.0751953 35.6267 10.3771 45.9245 23.0082 45.9245C35.6393 45.9245 45.9205 35.6267 45.9205 22.9956C45.9205 10.3645 35.6393 0.0792236 23.0082 0.0792236ZM23.0082 4.24584C25.4715 4.24172 27.9112 4.72392 30.1877 5.66477C32.4642 6.60563 34.5325 7.98664 36.274 9.72859C38.0156 11.4705 39.3961 13.5392 40.3365 15.8158C41.2768 18.0925 41.7585 20.5324 41.7538 22.9956C41.7588 25.4595 41.2774 27.9001 40.3373 30.1776C39.3972 32.4551 38.0169 34.5246 36.2754 36.2676C34.5339 38.0106 32.4656 39.3928 30.189 40.3349C27.9123 41.2771 25.4721 41.7606 23.0082 41.7579C20.5433 41.7609 18.102 41.2777 15.824 40.3359C13.5461 39.3941 11.4763 38.0123 9.73312 36.2695C7.98995 34.5267 6.60765 32.4572 5.66537 30.1795C4.7231 27.9018 4.23934 25.4605 4.24181 22.9956C4.24181 12.6166 12.6292 4.24584 23.0082 4.24584ZM22.9749 8.38329C22.6995 8.38598 22.4274 8.44325 22.1743 8.55177C21.9212 8.66029 21.6922 8.81791 21.5004 9.01552C21.3086 9.21313 21.1579 9.4468 21.0569 9.70302C20.956 9.95925 20.9069 10.2329 20.9124 10.5083V22.9956C20.9136 23.2697 20.9688 23.541 21.075 23.7937C21.1812 24.0465 21.3362 24.2758 21.5312 24.4685L29.8644 32.8059C30.0572 33.0043 30.2875 33.1622 30.542 33.2706C30.7964 33.379 31.0699 33.4357 31.3465 33.4373C31.6231 33.4389 31.8972 33.3854 32.1529 33.2799C32.4086 33.1744 32.6407 33.0191 32.8357 32.823C33.0308 32.6268 33.1848 32.3938 33.2888 32.1376C33.3928 31.8813 33.4448 31.6068 33.4416 31.3303C33.4385 31.0537 33.3803 30.7805 33.2704 30.5267C33.1606 30.2728 33.0013 30.0434 32.8019 29.8518L25.0832 22.1331V10.5083C25.0888 10.2291 25.0382 9.95161 24.9345 9.69236C24.8307 9.4331 24.6759 9.19736 24.4792 8.99913C24.2826 8.8009 24.048 8.64423 23.7896 8.53843C23.5312 8.43264 23.2541 8.37988 22.9749 8.38329Z" fill="#93A603"/>
</svg>
