<svg width="48" height="45" viewBox="0 0 48 45" fill="none" xmlns="http://www.w3.org/2000/svg">
<path d="M8.49609 0.0605469L6.12305 2.43359L9.65625 5.9668L12.0293 3.59375L8.49609 0.0605469ZM39.5039 0.0605469L35.9707 3.59375L38.3438 5.9668L41.877 2.43359L39.5039 0.0605469ZM24 1.11523C23.4463 1.12183 22.8794 1.15479 22.3125 1.2207C22.2927 1.2207 22.2795 1.2207 22.2598 1.2207C15.4175 2.00513 9.97266 7.53565 9.02344 14.3516C8.26538 19.8359 10.5264 24.8062 14.2969 28.0098C15.9119 29.394 16.9072 31.2397 17.25 33.125V43.25H21.0996C21.6863 44.2585 22.7542 44.9375 24 44.9375C25.2458 44.9375 26.3137 44.2585 26.9004 43.25H30.75V36.5H30.9082V34.4961C30.9082 32.0242 32.1936 29.5259 34.2832 27.5879C37.0781 24.793 39.1875 20.8181 39.1875 16.25C39.1875 7.91138 32.3254 1.03613 24 1.11523ZM24 4.49023C30.5193 4.39795 35.8125 9.7373 35.8125 16.25C35.8125 19.7832 34.1777 22.8945 31.9102 25.1621L31.9629 25.2148C29.6953 27.3308 28.2451 30.0994 27.8496 33.125H20.4668C20.0977 30.2312 18.8518 27.4363 16.5117 25.4258C13.5322 22.8879 11.7524 19.0779 12.3457 14.7734C13.084 9.45386 17.395 5.18237 22.6816 4.5957C23.1233 4.54297 23.5649 4.49683 24 4.49023ZM0.375 16.25V19.625H5.4375V16.25H0.375ZM42.5625 16.25V19.625H47.625V16.25H42.5625ZM9.65625 29.9082L6.12305 33.4414L8.49609 35.8145L12.0293 32.2812L9.65625 29.9082ZM38.3438 29.9082L35.9707 32.2812L39.5039 35.8145L41.877 33.4414L38.3438 29.9082ZM20.625 36.5H27.375V39.875H20.625V36.5Z" fill="#93A603"/>
</svg>
