<svg width="69" height="67" viewBox="0 0 69 67" fill="none" xmlns="http://www.w3.org/2000/svg">
<circle cx="35" cy="33.75" r="30" fill="url(#paint0_linear_183_2941)"/>
<path d="M38.0625 21H40.1875V23.125H38.0625V21ZM42.3125 21H44.4375V23.125H42.3125V21ZM38.0625 25.25H40.1875V27.375H38.0625V25.25ZM42.3125 25.25H44.4375V27.375H42.3125V25.25ZM38.0625 29.5H40.1875V31.625H38.0625V29.5ZM42.3125 29.5H44.4375V31.625H42.3125V29.5ZM38.0625 33.75H40.1875V35.875H38.0625V33.75ZM42.3125 33.75H44.4375V35.875H42.3125V33.75ZM38.0625 38H40.1875V40.125H38.0625V38ZM42.3125 38H44.4375V40.125H42.3125V38ZM46.5625 16.75H35.9375C35.3739 16.75 34.8334 16.9739 34.4349 17.3724C34.0364 17.7709 33.8125 18.3114 33.8125 18.875V25.25H23.1875C22.6239 25.25 22.0834 25.4739 21.6849 25.8724C21.2864 26.2709 21.0625 26.8114 21.0625 27.375V48.625C21.0625 49.1886 21.2864 49.7291 21.6849 50.1276C22.0834 50.5261 22.6239 50.75 23.1875 50.75H46.5625C47.1261 50.75 47.6666 50.5261 48.0651 50.1276C48.4636 49.7291 48.6875 49.1886 48.6875 48.625V18.875C48.6875 18.3114 48.4636 17.7709 48.0651 17.3724C47.6666 16.9739 47.1261 16.75 46.5625 16.75ZM29.5625 48.625H27.4375V44.375H29.5625V48.625ZM31.6875 48.625V42.25H25.3125V48.625H23.1875V27.375H33.8125V48.625H31.6875ZM42.3125 48.625H40.1875V44.375H42.3125V48.625ZM46.5625 48.625H44.4375V42.25H38.0625V48.625H35.9375V18.875H46.5625V48.625ZM25.3125 29.5H27.4375V31.625H25.3125V29.5ZM29.5625 29.5H31.6875V31.625H29.5625V29.5ZM25.3125 33.75H27.4375V35.875H25.3125V33.75ZM29.5625 33.75H31.6875V35.875H29.5625V33.75ZM25.3125 38H27.4375V40.125H25.3125V38ZM29.5625 38H31.6875V40.125H29.5625V38Z" fill="#93A603"/>
<defs>
<linearGradient id="paint0_linear_183_2941" x1="-1.17747" y1="-9.0959" x2="62.5506" y2="-6.55046" gradientUnits="userSpaceOnUse">
<stop stop-color="#93A603" stop-opacity="0.3"/>
<stop offset="0.33" stop-color="#93A603" stop-opacity="0.24"/>
<stop offset="0.68" stop-color="#93A603" stop-opacity="0.15"/>
<stop offset="1" stop-color="#93A603" stop-opacity="0.06"/>
</linearGradient>
</defs>
</svg>
