<svg width="65" height="68" viewBox="0 0 65 68" fill="none" xmlns="http://www.w3.org/2000/svg">
<path d="M36.8311 25.6132C36.8302 25.7548 36.8249 25.8964 36.8152 26.0376C36.8104 26.1074 36.8031 26.1771 36.7956 26.2467C36.7706 26.4828 36.8261 26.0521 36.7895 26.2856C36.7436 26.5783 36.6691 26.866 36.5772 27.1475C36.5563 27.2117 36.533 27.2752 36.5098 27.3385C36.4959 27.3762 36.4091 27.5887 36.499 27.3759C36.4469 27.4993 36.388 27.6197 36.3272 27.7389C36.196 27.9956 36.0406 28.2394 35.8717 28.4728C35.7391 28.656 35.9899 28.3264 35.849 28.503C35.8077 28.5547 35.7645 28.605 35.7214 28.6553C35.6352 28.7557 35.5438 28.8515 35.4508 28.9456C35.3578 29.0398 35.2598 29.129 35.1604 29.2163C35.1107 29.26 35.0594 29.3019 35.0081 29.3439C34.9315 29.4047 34.9392 29.3991 35.0312 29.3271C34.9959 29.3536 34.9603 29.3798 34.9243 29.4055C34.7087 29.5616 34.4795 29.6983 34.244 29.8221C34.1255 29.8844 34.0038 29.9403 33.8811 29.9939C34.0925 29.9015 33.8816 29.9902 33.8438 30.0046C33.7595 30.0367 33.674 30.0652 33.5884 30.0932C33.3281 30.178 33.0605 30.2387 32.7908 30.2844C32.5579 30.3239 32.9877 30.2625 32.7519 30.2906C32.6825 30.2988 32.6127 30.3045 32.5429 30.3101C32.3781 30.3235 32.2125 30.3266 32.0473 30.3255C31.906 30.3247 31.765 30.3159 31.6242 30.3044C31.5546 30.2984 31.4852 30.291 31.4159 30.2823C31.6525 30.3104 31.4198 30.2799 31.3781 30.2728C31.0864 30.2234 30.8001 30.1455 30.5203 30.0504C30.4564 30.0287 30.3933 30.0047 30.3303 29.9807C30.1158 29.899 30.5042 30.0588 30.2944 29.9671C30.1718 29.9135 30.0522 29.8533 29.9338 29.791C29.6788 29.6569 29.4369 29.4987 29.2057 29.3271C29.3881 29.4625 29.2087 29.3274 29.1775 29.302C29.1266 29.2597 29.0763 29.2166 29.0268 29.1727C28.9274 29.0853 28.8326 28.9928 28.7396 28.8987C28.6466 28.8045 28.5586 28.7055 28.4724 28.6051C28.4293 28.5548 28.3879 28.5031 28.3466 28.4513C28.4944 28.6364 28.3139 28.4016 28.288 28.365C28.1344 28.1474 28.0004 27.9165 27.8793 27.6795C27.8489 27.6199 27.8206 27.5592 27.7923 27.4986C27.7751 27.4618 27.6886 27.251 27.7758 27.4642C27.7162 27.3183 27.6654 27.1689 27.6184 27.0185C27.5366 26.7568 27.4791 26.488 27.4366 26.2173C27.4736 26.453 27.4383 26.2195 27.4338 26.1774C27.4268 26.1076 27.4211 26.0377 27.4168 25.9676C27.4055 25.8024 27.4045 25.6366 27.4075 25.4711C27.4102 25.3302 27.4206 25.1896 27.4338 25.0494C27.4377 25.0077 27.4707 24.7729 27.4366 25.0095C27.4464 24.9411 27.4588 24.8732 27.4712 24.8052C27.5242 24.5146 27.6055 24.2298 27.7038 23.9515C27.7263 23.888 27.7511 23.8253 27.7758 23.7626C27.6914 23.9765 27.7754 23.7656 27.7923 23.7282C27.8473 23.6064 27.9089 23.4876 27.9725 23.3701C28.0359 23.253 28.1055 23.1394 28.177 23.0272C28.2127 22.9712 28.2504 22.9165 28.288 22.8618C28.3132 22.8252 28.4923 22.5884 28.3466 22.7755C28.5094 22.5666 28.6903 22.3724 28.8807 22.1886C28.9759 22.0967 29.076 22.0098 29.1774 21.9249C29.208 21.8993 29.3867 21.762 29.2056 21.8997C29.276 21.8462 29.3486 21.7955 29.4214 21.7454C29.6409 21.5942 29.8736 21.4628 30.1122 21.3445C30.1724 21.3151 30.2331 21.2869 30.2943 21.2597C30.5029 21.1654 30.1168 21.3303 30.3302 21.2461C30.477 21.1881 30.6272 21.1391 30.7783 21.0939C30.9092 21.0547 31.042 21.0228 31.1753 20.9934C31.2425 20.9785 31.3103 20.9662 31.378 20.9538C31.4191 20.9463 31.6525 20.9133 31.4158 20.9443C31.7192 20.9045 32.026 20.8951 32.3316 20.9047C32.4721 20.909 32.6121 20.9213 32.7518 20.9361C32.9879 20.9612 32.5573 20.9056 32.7907 20.9422C32.8588 20.9529 32.9265 20.9661 32.9942 20.9793C33.2836 21.0358 33.567 21.1205 33.8437 21.222C33.8813 21.2358 34.0939 21.3227 33.881 21.2327C33.9428 21.2588 34.0036 21.2871 34.0643 21.3155C34.1854 21.3719 34.3033 21.4348 34.42 21.4998C34.5362 21.5645 34.6489 21.6354 34.7602 21.7082C34.8158 21.7446 34.87 21.7829 34.9242 21.8212C34.9566 21.8441 35.1359 21.9815 34.9563 21.8415C35.1651 22.0043 35.3594 22.1853 35.5432 22.3757C35.6352 22.4709 35.722 22.5709 35.807 22.6724C35.8326 22.7029 35.9698 22.8817 35.8321 22.7005C35.8722 22.7534 35.9105 22.8075 35.9488 22.8617C36.1024 23.0793 36.2364 23.3102 36.3575 23.5472C36.388 23.6068 36.4163 23.6675 36.4445 23.7281C36.4617 23.765 36.5482 23.9758 36.461 23.7625C36.5121 23.8875 36.5563 24.0152 36.5982 24.1435C36.6831 24.4038 36.7437 24.6714 36.7895 24.9411C36.8289 25.174 36.7676 24.7442 36.7956 24.98C36.8038 25.0495 36.8095 25.1192 36.8152 25.189C36.8267 25.33 36.8302 25.4717 36.8311 25.6132C36.8341 26.0976 37.233 26.5019 37.7198 26.5019C38.2019 26.5019 38.6115 26.0977 38.6084 25.6132C38.5928 23.1206 37.1264 20.7577 34.8395 19.7248C32.4488 18.645 29.6683 19.0896 27.7207 20.8416C25.8474 22.5268 25.1608 25.3094 25.9675 27.6841C26.3585 28.8349 27.0726 29.8825 28.0239 30.642C29.0546 31.4649 30.2451 31.9361 31.5546 32.0752C33.3607 32.2672 35.1801 31.587 36.5162 30.3851C37.853 29.1824 38.5972 27.3997 38.6084 25.6132C38.6114 25.1288 38.2018 24.7245 37.7197 24.7246C37.233 24.7246 36.8341 25.1289 36.8311 25.6132Z" fill="#93A603"/>
<path d="M38.535 31.8798C38.6594 31.9591 38.7816 32.0417 38.9016 32.1276C38.9252 32.1445 39.1202 32.2944 38.9565 32.1664C39.0145 32.2117 39.0709 32.2588 39.1274 32.306C39.372 32.5102 39.5989 32.7349 39.813 32.9706C39.9119 33.0795 40.0055 33.1931 40.0973 33.308C39.9678 33.1458 40.1186 33.3395 40.1359 33.3631C40.1791 33.4228 40.2213 33.4832 40.2625 33.5443C40.4435 33.8093 40.6014 34.0892 40.7436 34.3765C40.7762 34.4434 40.8078 34.5107 40.8382 34.5786C40.9413 34.8052 40.7715 34.4098 40.8648 34.6412C40.9209 34.7802 40.9702 34.922 41.0171 35.0645C41.12 35.3771 41.1949 35.6984 41.2518 36.0224C41.2571 36.0527 41.2929 36.3069 41.2648 36.0909C41.2748 36.1678 41.2823 36.245 41.2896 36.3223C41.3046 36.4782 41.3116 36.6348 41.316 36.7914C41.3183 36.8723 41.3178 36.9532 41.3178 37.0341L41.3179 41.5648C41.3179 41.6223 41.3161 41.6507 41.3133 41.7079C41.3018 41.9444 41.3503 41.5187 41.309 41.7488C41.2969 41.8165 41.2783 41.8828 41.2597 41.9488C41.2487 41.988 41.1664 42.2018 41.2556 41.9909C41.2033 42.1146 41.134 42.2302 41.0599 42.3416C40.9356 42.5288 41.181 42.2014 41.035 42.3716C40.9772 42.439 40.9124 42.4999 40.847 42.5596C40.6813 42.7109 41.0002 42.4546 40.817 42.5846C40.7625 42.6233 40.7045 42.6569 40.6467 42.6903C40.5885 42.724 40.5273 42.7522 40.4663 42.7803C40.6718 42.6857 40.4653 42.7713 40.4242 42.7843C40.3587 42.805 40.2914 42.8193 40.2242 42.8336C39.9955 42.8824 40.4193 42.8188 40.1834 42.8379C40.1345 42.8419 40.0846 42.8425 40.0356 42.8425L24.1979 42.8428C24.1351 42.8428 24.1178 42.8412 24.0553 42.8382C23.8188 42.8266 24.2445 42.8752 24.0144 42.8339C23.9468 42.8218 23.8805 42.8032 23.8144 42.7846C23.771 42.7717 23.7279 42.7573 23.6853 42.7416C23.7926 42.79 23.8012 42.7935 23.7111 42.7524C23.5895 42.6963 23.4762 42.6236 23.3672 42.5462C23.5484 42.6748 23.3747 42.5444 23.3425 42.515C23.2934 42.4702 23.2484 42.4209 23.2036 42.3719C23.0524 42.2061 23.3086 42.5251 23.1786 42.3419C23.1399 42.2873 23.1064 42.2293 23.0729 42.1715C23.0392 42.1133 23.0111 42.0521 22.983 41.9912C23.0811 42.2043 22.9737 41.9305 22.9604 41.8832C22.9417 41.8167 22.9295 41.7487 22.9173 41.6808C22.9585 41.9103 22.9241 41.6831 22.9219 41.6373C22.9205 41.6077 22.9207 41.5776 22.9207 41.5478L22.9206 37.1915C22.9206 36.9531 22.9218 36.7154 22.9366 36.4772C22.9414 36.3993 22.9489 36.3216 22.9563 36.244C22.9592 36.2139 22.9933 35.9572 22.9628 36.173C22.9843 36.0211 23.0134 35.8703 23.045 35.7202C23.1126 35.3995 23.2084 35.0852 23.3211 34.7776C23.3469 34.7072 23.375 34.6378 23.403 34.5684C23.3243 34.7631 23.4206 34.5339 23.4328 34.507C23.4945 34.3717 23.5628 34.2394 23.6331 34.1084C23.7847 33.8259 23.9604 33.557 24.1497 33.2986C24.2953 33.0998 24.0375 33.4374 24.1912 33.2452C24.2372 33.1877 24.2851 33.1317 24.3329 33.0756C24.4285 32.9636 24.5294 32.8562 24.6319 32.7506C24.7344 32.6449 24.8419 32.5442 24.951 32.4453C25.0057 32.3961 25.0613 32.3477 25.1177 32.3003C25.1458 32.2764 25.3934 32.0818 25.2259 32.2096C25.3628 32.105 25.5052 32.0079 25.6496 31.9139C26.0547 31.6501 26.2221 31.1312 25.9684 30.6981C25.7325 30.2955 25.1589 30.1147 24.7525 30.3793C22.5294 31.8269 21.1432 34.2971 21.1432 36.9614L21.1433 40.8915C21.1433 41.6353 21.1615 42.3181 21.5064 43.0097C22.0056 44.0105 23.126 44.6203 24.2235 44.6202L40.0305 44.62C41.3214 44.62 42.4459 43.805 42.9062 42.6136C43.1376 42.0149 43.0953 41.3664 43.0953 40.7374L43.0952 36.9496C43.0952 35.5735 42.7214 34.2122 42.0333 33.0222C41.4033 31.9328 40.4898 31.0199 39.4322 30.3451C39.0234 30.0843 38.4538 30.2584 38.2163 30.6639C37.9642 31.0941 38.1275 31.6197 38.535 31.8798ZM50.8018 30.5544C50.8005 30.6948 50.7925 30.8351 50.7778 30.9748C50.8026 30.739 50.7756 30.968 50.7678 31.0113C50.7555 31.0785 50.7394 31.1449 50.7234 31.2113C50.6916 31.3426 50.6489 31.4711 50.6027 31.598C50.5246 31.8125 50.6826 31.4253 50.5892 31.6327C50.5527 31.7137 50.5111 31.7922 50.4688 31.8701C50.4058 31.9866 50.3332 32.0977 50.2579 32.2066C50.1299 32.3916 50.3778 32.0618 50.2369 32.2369C50.1956 32.2883 50.1515 32.3374 50.1075 32.3864C50.0194 32.4845 49.9235 32.5753 49.8255 32.6633C49.7764 32.7074 49.725 32.7487 49.6736 32.7901C49.858 32.6417 49.6237 32.8185 49.5854 32.844C49.4749 32.9175 49.3586 32.9819 49.2409 33.0429C49.1816 33.0736 49.1208 33.1011 49.06 33.1284C49.27 33.0339 49.0624 33.1232 49.023 33.1375C48.8957 33.1839 48.7648 33.2195 48.6332 33.2512C48.5666 33.2673 48.4992 33.2796 48.4319 33.2919C48.331 33.3078 48.3413 33.307 48.4629 33.2897C48.4168 33.295 48.3706 33.2993 48.3243 33.3029C48.1835 33.315 48.042 33.315 47.9009 33.311C47.8308 33.3089 47.7609 33.303 47.6912 33.297C47.4555 33.2768 47.8848 33.3298 47.6531 33.2919C47.5184 33.27 47.3858 33.2367 47.2546 33.1997C47.1896 33.1814 47.1258 33.1595 47.062 33.1376C47.0198 33.1226 46.9778 33.1069 46.9362 33.0904C47.0452 33.1378 47.0545 33.1413 46.9641 33.1011C46.8428 33.0464 46.7262 32.9819 46.6118 32.9144C46.5547 32.8807 46.4996 32.844 46.4445 32.8074C46.411 32.7851 46.2309 32.6503 46.4113 32.7902C46.1853 32.615 45.9856 32.4079 45.8067 32.1855C45.9492 32.3626 45.8129 32.1862 45.7894 32.1524C45.7518 32.098 45.7171 32.0415 45.6824 31.9852C45.6128 31.8719 45.5525 31.753 45.4958 31.6328C45.3985 31.4271 45.5643 31.8111 45.4822 31.5981C45.4579 31.5353 45.4373 31.4712 45.4166 31.4071C45.3678 31.2557 45.3333 31.1002 45.3048 30.9439C45.2626 30.7129 45.3245 31.141 45.2998 30.9058C45.2924 30.8361 45.2891 30.7661 45.2858 30.6961C45.2791 30.555 45.2844 30.4136 45.2938 30.2728C45.2967 30.2303 45.3278 29.9962 45.2937 30.2331C45.3034 30.1651 45.3171 30.0978 45.3307 30.0305C45.362 29.8754 45.4079 29.7236 45.4592 29.5741C45.4725 29.5353 45.5594 29.3245 45.4683 29.5371C45.4946 29.4758 45.5242 29.416 45.5538 29.3563C45.6127 29.2373 45.6813 29.1234 45.7528 29.0117C45.7884 28.956 45.827 28.9023 45.8657 28.8487C45.7335 29.0323 45.8634 28.8537 45.8902 28.8215C45.9888 28.7034 46.0978 28.5944 46.2104 28.4897C46.2586 28.4447 46.3093 28.4024 46.3599 28.3602C46.4362 28.2991 46.4284 28.305 46.3365 28.3779C46.372 28.3518 46.408 28.3264 46.4445 28.3017C46.5718 28.2136 46.7067 28.1372 46.844 28.066C46.9033 28.0353 46.9641 28.0079 47.0249 27.9805C46.8063 28.079 47.0812 27.9648 47.1256 27.9496C47.2973 27.8906 47.4746 27.8496 47.653 27.817C47.884 27.7748 47.4559 27.8368 47.6911 27.812C47.7842 27.8022 47.8779 27.7987 47.9714 27.796C48.1356 27.7913 48.2998 27.8021 48.4629 27.8193C48.227 27.7945 48.4561 27.8214 48.4994 27.8293C48.5889 27.8456 48.6771 27.8679 48.7651 27.8909C48.8522 27.9137 48.9377 27.9422 49.0229 27.9714C49.0651 27.9863 49.107 28.002 49.1487 28.0185C49.0397 27.9712 49.0304 27.9677 49.1208 28.0079C49.2622 28.0716 49.3975 28.1481 49.5296 28.2293C49.5859 28.2639 49.6404 28.3016 49.6947 28.3393C49.7736 28.3971 49.7665 28.3903 49.6735 28.3188C49.7081 28.3461 49.7421 28.3739 49.7756 28.4024C49.8937 28.501 50.0027 28.61 50.1074 28.7225C50.1673 28.7869 50.2231 28.855 50.2782 28.9235C50.1298 28.7391 50.3066 28.9734 50.3321 29.0117C50.4179 29.1407 50.4919 29.2772 50.5606 29.4159C50.5791 29.4532 50.6654 29.6617 50.5786 29.4483C50.6124 29.5314 50.6407 29.6166 50.6683 29.702C50.7171 29.8533 50.7516 30.0088 50.7801 30.1651C50.796 30.2661 50.7952 30.2557 50.7779 30.1341C50.7831 30.1802 50.7875 30.2264 50.7911 30.2728C50.7991 30.3663 50.8009 30.4604 50.8018 30.5544C50.8064 31.0387 51.2026 31.443 51.6905 31.443C52.1714 31.443 52.5837 31.0388 52.5791 30.5543C52.5668 29.2599 52.0159 27.997 51.0323 27.1455C49.9694 26.2253 48.6254 25.8941 47.2485 26.092C45.9822 26.2739 44.8608 27.1102 44.1825 28.1703C43.4789 29.2696 43.3252 30.7089 43.7236 31.9437C44.0556 32.9729 44.7516 33.8341 45.6584 34.4143C46.6085 35.0223 47.7387 35.1746 48.8365 35.0168C50.9925 34.7069 52.5589 32.675 52.5791 30.5543C52.5837 30.0699 52.1714 29.6657 51.6904 29.6657C51.2025 29.6657 50.8064 30.07 50.8018 30.5544Z" fill="#93A603"/>
<path d="M52.0648 34.9031C52.1265 34.9427 52.1875 34.9833 52.2479 35.0249C52.2728 35.0421 52.4658 35.1908 52.3018 35.0614C52.4165 35.1519 52.5244 35.2506 52.6296 35.3517C52.7349 35.4528 52.8328 35.5615 52.9277 35.6723C52.9476 35.6956 53.095 35.8886 52.9698 35.7219C53.0284 35.7999 53.0825 35.8813 53.1359 35.9629C53.2164 36.086 53.2876 36.2148 53.3555 36.345C53.3897 36.4104 53.4205 36.4775 53.4513 36.5446C53.3631 36.3528 53.4631 36.577 53.4745 36.6066C53.5278 36.7464 53.5706 36.8899 53.6096 37.0342C53.6293 37.1071 53.6453 37.1809 53.6613 37.2547C53.6698 37.2938 53.7197 37.6158 53.6912 37.3946C53.7744 38.039 53.7237 38.7172 53.7237 39.3647L53.7238 40.9438C53.7238 40.9906 53.7215 41.0372 53.7169 41.0837C53.7346 40.9615 53.7335 40.9502 53.7137 41.0498C53.7039 41.0939 53.6226 41.2989 53.714 41.0899C53.6875 41.1505 53.6526 41.2071 53.6178 41.2632C53.5026 41.4497 53.7411 41.1277 53.5938 41.2892C53.5639 41.3221 53.3962 41.4579 53.5758 41.3224C53.523 41.3622 53.4651 41.3944 53.4075 41.4263C53.2142 41.5335 53.5848 41.3682 53.3731 41.4376C53.328 41.4523 53.1085 41.4874 53.3419 41.4587C53.2995 41.4639 53.2428 41.4655 53.2003 41.4655L45.2961 41.4657C44.8117 41.4657 44.4074 41.8699 44.4075 42.3544C44.4075 42.8388 44.8117 43.243 45.2961 43.243L52.7498 43.2429C53.3761 43.2429 53.9965 43.2166 54.5254 42.8175C55.1241 42.3658 55.5012 41.7026 55.5012 40.9394L55.5011 38.0867C55.5011 36.9685 55.221 35.8766 54.5896 34.944C54.1592 34.3084 53.6072 33.7828 52.962 33.3686C52.5539 33.1067 51.9832 33.2829 51.7462 33.6874C51.4935 34.1184 51.658 34.642 52.0648 34.9031ZM18.9548 30.5549C18.9536 30.6954 18.9456 30.8357 18.9309 30.9754C18.9557 30.7395 18.9287 30.9686 18.9208 31.0119C18.9086 31.079 18.8925 31.1455 18.8765 31.2118C18.8448 31.3432 18.802 31.4717 18.7558 31.5985C18.6776 31.813 18.8357 31.4258 18.7422 31.6333C18.7058 31.7142 18.6642 31.7927 18.6219 31.8707C18.5588 31.9872 18.4863 32.0983 18.4109 32.2072C18.2829 32.3922 18.5309 32.0623 18.39 32.2374C18.3487 32.2888 18.3046 32.3379 18.2606 32.3869C18.1725 32.4851 18.0767 32.5759 17.9786 32.6639C17.9295 32.7079 17.8781 32.7493 17.8267 32.7906C18.0112 32.6423 17.7768 32.819 17.7385 32.8445C17.628 32.9181 17.5117 32.9824 17.3939 33.0435C17.3347 33.0742 17.2739 33.1016 17.2131 33.129C17.423 33.0344 17.2155 33.1237 17.1761 33.1381C17.0488 33.1845 16.9179 33.22 16.7863 33.2518C16.7197 33.2678 16.6524 33.2802 16.585 33.2925C16.4841 33.3084 16.4944 33.3076 16.6161 33.2902C16.5699 33.2955 16.5237 33.2999 16.4774 33.3035C16.3366 33.3156 16.1951 33.3155 16.0541 33.3115C15.984 33.3095 15.9141 33.3035 15.8443 33.2975C15.6087 33.2773 16.0379 33.3303 15.8062 33.2925C15.6715 33.2706 15.539 33.2372 15.4078 33.2003C15.3428 33.182 15.2789 33.1601 15.2151 33.1381C15.1729 33.1232 15.131 33.1075 15.0894 33.091C15.1983 33.1383 15.2077 33.1419 15.1172 33.1016C14.9959 33.047 14.8794 32.9824 14.7649 32.915C14.7079 32.8813 14.6527 32.8446 14.5977 32.808C14.5642 32.7857 14.3841 32.6509 14.5645 32.7907C14.3385 32.6156 14.1388 32.4085 13.9598 32.1861C14.1023 32.3632 13.9661 32.1868 13.9427 32.1529C13.905 32.0986 13.8703 32.0421 13.8357 31.9857C13.766 31.8724 13.7058 31.7536 13.649 31.6334C13.5517 31.4277 13.7175 31.8117 13.6354 31.5987C13.6112 31.5359 13.5905 31.4717 13.5699 31.4076C13.5211 31.2563 13.4866 31.1008 13.458 30.9445C13.4158 30.7135 13.4778 31.1415 13.453 30.9064C13.4457 30.8366 13.4423 30.7666 13.439 30.6966C13.4323 30.5555 13.4377 30.4141 13.447 30.2733C13.4499 30.2308 13.481 29.9967 13.4469 30.2337C13.4567 30.1657 13.4703 30.0983 13.484 30.0311C13.5153 29.876 13.5611 29.7242 13.6124 29.5746C13.6257 29.5359 13.7126 29.325 13.6215 29.5377C13.6478 29.4764 13.6774 29.4165 13.707 29.3568C13.7659 29.2379 13.8345 29.124 13.9059 29.0123C13.9416 28.9566 13.9802 28.9029 14.0188 28.8493C13.8867 29.0329 14.0165 28.8543 14.0435 28.822C14.142 28.7039 14.251 28.5949 14.3636 28.4902C14.4119 28.4453 14.4625 28.403 14.5131 28.3608C14.5894 28.2997 14.5816 28.3056 14.4897 28.3784C14.5252 28.3524 14.5612 28.327 14.5977 28.3022C14.725 28.2141 14.86 28.1378 14.9973 28.0666C15.0565 28.0359 15.1173 28.0085 15.1781 27.9811C14.9594 28.0796 15.2344 27.9653 15.2787 27.9501C15.4504 27.8911 15.6278 27.8502 15.8062 27.8176C16.0371 27.7754 15.6091 27.8373 15.8442 27.8126C15.9374 27.8028 16.0311 27.7992 16.1246 27.7965C16.2887 27.7919 16.4529 27.8027 16.6161 27.8198C16.3802 27.7951 16.6093 27.822 16.6525 27.8299C16.742 27.8462 16.8303 27.8684 16.9182 27.8914C17.0054 27.9142 17.0909 27.9427 17.1761 27.9719C17.2183 27.9868 17.2602 28.0025 17.3019 28.019C17.1929 27.9717 17.1835 27.9682 17.274 28.0085C17.4155 28.0722 17.5508 28.1487 17.6827 28.2298C17.7391 28.2645 17.7935 28.3021 17.8479 28.3398C17.9267 28.3977 17.9197 28.3909 17.8267 28.3194C17.8613 28.3466 17.8953 28.3745 17.9288 28.403C18.0469 28.5016 18.1559 28.6106 18.2606 28.7231C18.3206 28.7875 18.3763 28.8555 18.4315 28.924C18.2831 28.7396 18.4598 28.974 18.4853 29.0123C18.5712 29.1413 18.6452 29.2778 18.7139 29.4165C18.7323 29.4537 18.8186 29.6623 18.7318 29.4489C18.7656 29.532 18.794 29.6172 18.8215 29.7025C18.8703 29.8538 18.9048 30.0094 18.9333 30.1657C18.9491 30.2666 18.9483 30.2563 18.931 30.1346C18.9363 30.1808 18.9407 30.227 18.9443 30.2733C18.9521 30.3669 18.9539 30.461 18.9548 30.5549C18.9595 31.0393 19.3556 31.4436 19.8435 31.4436C20.3245 31.4436 20.7368 31.0394 20.7322 30.5549C20.7198 29.2604 20.1689 27.9975 19.1854 27.1461C18.1225 26.2259 16.7784 25.8947 15.4016 26.0925C14.1353 26.2745 13.0139 27.1108 12.3356 28.1709C11.6321 29.2702 11.4784 30.7095 11.8767 31.9443C12.2087 32.9734 12.9047 33.8347 13.8115 34.4149C14.7616 35.0229 15.8918 35.1752 16.9896 35.0174C19.1456 34.7075 20.7121 32.6755 20.7322 30.5549C20.7368 30.0704 20.3245 29.6662 19.8435 29.6662C19.3555 29.6662 18.9595 30.0706 18.9548 30.5549ZM18.9428 41.4659L11.071 41.4661C10.9968 41.4661 10.7792 41.4331 10.9971 41.4708C10.9305 41.4593 10.866 41.4382 10.8019 41.4172C11.0082 41.4848 10.8208 41.4211 10.7734 41.3948C10.7318 41.3717 10.569 41.2387 10.7398 41.3804C10.7004 41.3476 10.5178 41.1322 10.6581 41.3181C10.6183 41.2654 10.5862 41.2074 10.5542 41.1499C10.447 40.9566 10.6124 41.3271 10.543 41.1155C10.5282 41.0704 10.4931 40.8509 10.5219 41.0843C10.517 41.0446 10.515 40.983 10.515 40.9433L10.515 37.938C10.515 37.781 10.5244 37.6246 10.5392 37.4684C10.5637 37.2118 10.5082 37.6515 10.5499 37.3991C10.5623 37.3237 10.5786 37.249 10.5949 37.1744C10.6272 37.0267 10.6707 36.8815 10.7178 36.738C10.7412 36.6667 10.7681 36.5968 10.795 36.5268C10.7188 36.7248 10.8395 36.4338 10.8565 36.3986C10.921 36.2653 10.9955 36.1369 11.0729 36.0107C11.1115 35.9478 11.1531 35.8868 11.1947 35.8259C11.2113 35.8016 11.3598 35.6062 11.2318 35.7695C11.4285 35.5186 11.6572 35.2942 11.9019 35.0904C12.0902 34.9335 11.7574 35.1947 11.9558 35.0503C12.0154 35.0069 12.0771 34.9665 12.1388 34.926C12.5431 34.6611 12.7119 34.1442 12.4576 33.7102C12.2223 33.3085 11.6473 33.1256 11.2417 33.3914C10.0679 34.1606 9.20548 35.3292 8.88101 36.702C8.70151 37.4612 8.73752 38.2426 8.73753 39.0158L8.73757 40.9344C8.73759 42.2092 9.79609 43.2435 11.0638 43.2435L18.9427 43.2433C19.4272 43.2433 19.8314 42.8391 19.8314 42.3546C19.8314 41.8702 19.4272 41.4659 18.9428 41.4659Z" fill="#93A603"/>
<circle cx="32.0005" cy="35.0005" r="30" fill="url(#paint0_linear_183_2907)"/>
<defs>
<linearGradient id="paint0_linear_183_2907" x1="-4.17699" y1="-7.84541" x2="59.551" y2="-5.29997" gradientUnits="userSpaceOnUse">
<stop stop-color="#93A603" stop-opacity="0.3"/>
<stop offset="0.33" stop-color="#93A603" stop-opacity="0.24"/>
<stop offset="0.68" stop-color="#93A603" stop-opacity="0.15"/>
<stop offset="1" stop-color="#93A603" stop-opacity="0.06"/>
</linearGradient>
</defs>
</svg>
